<svg id="Layer_1" data-name="Layer 1" xmlns="http://www.w3.org/2000/svg" viewBox="0 0 510.24 185.33"><defs><style>.cls-1{fill:#7e3589;}.cls-2{fill:#fff;}.cls-3{fill:#c19b40;}.cls-4{fill:#803687;}</style></defs><title>pea-logo</title><path class="cls-1" d="M215.16,267.09a92.68,92.68,0,0,0-183.65,1.39A93.39,93.39,0,0,0,34.66,307a92.69,92.69,0,0,0,180.5-39.94Z" transform="translate(-30.76 -187.65)"/><path class="cls-2" d="M97.64,207.71a11.73,11.73,0,0,1,4.9-.26c-2,.28-4.2.33-5.74,1.8-2.45,2.5-3.61,6-6.3,8.33a16.92,16.92,0,0,1-5.88,3.23c1.56,0,3.36.43,4.1,2a7.44,7.44,0,0,0-4.48,0,19.13,19.13,0,0,0-2.73,2,9.06,9.06,0,0,1-3.92,1.66,4.22,4.22,0,0,1,2.91,1.61,6.71,6.71,0,0,0-4.89.93c-1.65,1.08-2.14,3.15-3.55,4.47a6.33,6.33,0,0,1-2.5,1.47,8.15,8.15,0,0,1,3.7.54,9.54,9.54,0,0,0-4.52,2c-.88.79-1.12,2-1.76,2.95A7,7,0,0,1,63.67,243a5.22,5.22,0,0,1,2.71.43c-2,.77-4.06,2.05-4.67,4.21a8.89,8.89,0,0,1-3.86,5.27,5.76,5.76,0,0,1,3,.3c-1.8.6-3.78,1.76-4.15,3.79-.3,2.41-.1,5.14-1.82,7.1a7.23,7.23,0,0,1,3.35-.52,9.4,9.4,0,0,0-2.46,1.75,6.27,6.27,0,0,0-1.53,4.61,7.74,7.74,0,0,1-1.87,5.87,8.31,8.31,0,0,1,3.38-.91,6.79,6.79,0,0,0-2.46,2.33c-.71,1.23-.34,2.68-.34,4a11.28,11.28,0,0,1-1,4.22,5.42,5.42,0,0,1,3.47-1.83,4.26,4.26,0,0,0-2,4,14.43,14.43,0,0,1-.49,5.63,5.59,5.59,0,0,1,4-2.41,3.87,3.87,0,0,0-1.56,1.62c-.76,1.51-.38,3.22-.22,4.81a16.82,16.82,0,0,1-.57,6.35,5.32,5.32,0,0,1,3.51-2.8,6.13,6.13,0,0,0-.51,4.91,9,9,0,0,1,.29,5.92,11,11,0,0,1-3.73,5.26,2.94,2.94,0,0,1-1.64.53A8,8,0,0,1,46,315.48a7.67,7.67,0,0,1-2.3-4.83,8.26,8.26,0,0,0-2.52-5.18,11,11,0,0,0-2.5-1.66,4.51,4.51,0,0,1,4.1.39c-1.38-1.49-.81-3.71-1.8-5.37a7.07,7.07,0,0,0-2.42-2.47,6.49,6.49,0,0,1,3.7.85A4.85,4.85,0,0,1,40.85,293a3.21,3.21,0,0,0-1-2.94,8.25,8.25,0,0,1-2.59-7.45c.72,1.49,1.45,3.15,3,4a6.3,6.3,0,0,0,2.37.69,5.22,5.22,0,0,1-2.7-2.79c-.72-2.06-.35-4.3.07-6.39.29-1.56.94-3.14.55-4.75a10,10,0,0,0-2.94-4.62,5.19,5.19,0,0,1,4.23,2,6.57,6.57,0,0,1-.65-3.75c.26-2,1-4.08.43-6.13a8.72,8.72,0,0,1,.59-6.61,4.46,4.46,0,0,0,.43,3.09,6.18,6.18,0,0,0,2.42,2.2,6.79,6.79,0,0,1-1.27-3.85c.09-2.28,2.08-3.9,2.39-6.12.11-1-.49-2-.32-3a3.34,3.34,0,0,1,.65-1.48,5.68,5.68,0,0,0,.28,1.79,6.2,6.2,0,0,0,1.21,1.35,8.37,8.37,0,0,1,.33-7.26c.64-1.26,2-2,2.4-3.44a11.56,11.56,0,0,0,.19-4.9,9.11,9.11,0,0,1,1.88,4.24c0-2.8,1.73-5.21,3.63-7.11,1-1.06,2.26-1.89,2.87-3.24a10.45,10.45,0,0,0,.76-5.44,6.78,6.78,0,0,1,2.16,4.27,8.87,8.87,0,0,1,2.65-5.49c.77-.76,1.88-1.09,2.52-2,1-1.34.73-3.23,1.81-4.53a5.4,5.4,0,0,1,3.68-1.48c-1.55,1.43-3.17,3.45-2.42,5.7a7.3,7.3,0,0,1,1.55-3.3c1.83-2,4.58-2.63,7.15-3,1.71-.23,2.52-1.92,3.8-2.86s3-.42,4.46,0a4.93,4.93,0,0,0-4.08,2.53,8.73,8.73,0,0,1,3.28-1.14c2-.35,3.95.62,5.92.14S95.8,208.25,97.64,207.71Zm-6.4,3.83a17.59,17.59,0,0,1-11,6.44c0,.5,0,1,.06,1.49a14.75,14.75,0,0,0,6.38-1.53,17.23,17.23,0,0,0,7.2-7.05A7,7,0,0,1,91.24,211.54ZM83,212.66a5.86,5.86,0,0,0-2.77,4.89c4-.7,8-2.61,10.36-6C88,211.48,85.26,211.3,83,212.66Zm-9.75,3.41a5.86,5.86,0,0,0-1.79,4.34l1.11,0A8.46,8.46,0,0,1,79,214.62a10.81,10.81,0,0,1,1.47-1.7A13.82,13.82,0,0,0,73.22,216.07Zm-.2,4.31c1.47-.15,3.15-.55,4-1.89a21.35,21.35,0,0,0,1.58-3.22A8.32,8.32,0,0,0,73,220.38Zm-5.17.46a20,20,0,0,0-2.93,2,4.89,4.89,0,0,0-1.64,3.32A14.33,14.33,0,0,1,67,223.32a5.77,5.77,0,0,0,2.64-3.11,7.1,7.1,0,0,0-.15-2.05A5.47,5.47,0,0,1,67.85,220.84Zm6.42.49c-1.7.4-2.76,2-3.38,3.51a15.46,15.46,0,0,0,8.36-3.24A14.4,14.4,0,0,0,74.27,221.33Zm-7.12,2.55a7.23,7.23,0,0,0-3.92,3.65,4.49,4.49,0,0,0,.28,1.92,5.31,5.31,0,0,1,.91-1.92c1.15-1.4,2.87-2.14,4.16-3.39a5,5,0,0,0,1.18-2.75A6.58,6.58,0,0,1,67.15,223.88Zm12.9-2.16a16.66,16.66,0,0,1-9,3.59c-.45,0-.51.41-.59.75A19.32,19.32,0,0,0,78.16,225a7.51,7.51,0,0,0,4.22-3.52A11.45,11.45,0,0,1,80.05,221.72Zm-12.51,7a9.37,9.37,0,0,0-4.88,3.58,5.06,5.06,0,0,0-.55,2.84,1.62,1.62,0,0,0,.74-.52,19.62,19.62,0,0,1,11.36-6.81,3.38,3.38,0,0,0,1.16-.86A30.46,30.46,0,0,0,67.54,228.76Zm-7.16.31a21.83,21.83,0,0,1-.51,3.43,12.68,12.68,0,0,1-5,7.24c.12.32.25.64.38,1a7.72,7.72,0,0,0,4.82-4.79A21.69,21.69,0,0,0,61.33,227C61.05,227.74,60.67,228.39,60.38,229.07ZM63,235.19a11.84,11.84,0,0,0,5.7-1.06c2.45-1.24,4-3.66,5.44-5.88C69.72,229.18,65.93,231.93,63,235.19Zm-6.91-1.68a7.19,7.19,0,0,0-1.27,5.61,11.48,11.48,0,0,0,5.08-9.48A32.38,32.38,0,0,0,56.05,233.51Zm9.69,5c-2.54.95-5.29,1-7.89,1.73a5.55,5.55,0,0,0-3.38,2.58c2.57-1.42,5.64-1.23,8.32-2.33A4.42,4.42,0,0,0,64.91,239l.32.35A7.26,7.26,0,0,1,62.58,241c-2.75.89-5.87,1-8.18,2.92-.83.51-.62,1.62-.69,2.44,2.46-2.54,6-3.21,9.28-4.26a7.07,7.07,0,0,0,4.54-4.94C67,237.61,66.35,238.07,65.74,238.52ZM49.05,244.2a7.89,7.89,0,0,0,1.12,5.5c.27-.18.54-.38.8-.57-.69-2.24-1-4.79.07-7a7,7,0,0,1,.08-1.65A7.64,7.64,0,0,0,49.05,244.2ZM51.29,243a11.22,11.22,0,0,0,0,5.61,3.48,3.48,0,0,0,1.18-2.47A5.91,5.91,0,0,0,51.29,243Zm-.85,10.65,1,.12a15,15,0,0,1,9.28-8,9,9,0,0,1,.87-1.92C56.84,245.48,52.25,248.74,50.44,253.63Zm1.46.17a9.85,9.85,0,0,0,3.31-.66,9.84,9.84,0,0,0,5.4-6.48C57,248,53.62,250.3,51.9,253.8Zm-4.09-3.49c-.08.65-.69,1.3-.36,2,1.08,2.59.55,5.54-.55,8l.52.51a9.56,9.56,0,0,0,1.71-4.09A10.28,10.28,0,0,0,47.81,250.31Zm-2.09,8.11c.25.46.37,1.19.92,1.35a8.34,8.34,0,0,0,.25-7.31C45.73,254.17,44.88,256.39,45.72,258.42Zm7.61-3.17c0,2.06.45,4.19-.21,6.19a5.94,5.94,0,0,1-4,3.37,5.68,5.68,0,0,0,.25,1.59,4.87,4.87,0,0,0,2.8-1.44,8.86,8.86,0,0,0,2.56-4.81c.17-1.29-.22-2.58,0-3.87a6.37,6.37,0,0,1,.77-2.19A13.6,13.6,0,0,0,53.33,255.25ZM48,261.63a8.88,8.88,0,0,1,.92,2.15,4,4,0,0,0,3.58-2.26,12.11,12.11,0,0,0,.35-5.95A13.77,13.77,0,0,0,48,261.63Zm-4-1c0,.62.09,1.24.11,1.86a13.71,13.71,0,0,1,2.81,7.94,9.3,9.3,0,0,0,.56-5.26A7.09,7.09,0,0,0,44,260.65Zm-.14,3.57c-.34,1.49-1,3-.81,4.53a8,8,0,0,0,2.47,4.44c.46-.78,1.15-1.59,1-2.57C46.27,268.3,45.61,265.81,43.81,264.22Zm9,1.51A13.34,13.34,0,0,0,47.17,272a8.64,8.64,0,0,0-.18,5.32l.63-.22a14.79,14.79,0,0,1,1.93-6.74,11.7,11.7,0,0,1,2.69-3A6.71,6.71,0,0,1,52.83,265.73ZM48,276.9a7.22,7.22,0,0,0,3.82-4.32,17.16,17.16,0,0,0,.45-4.46C49.42,270.1,48.39,273.66,48,276.9Zm-5.55-3c.12.63.23,1.26.32,1.89a15.26,15.26,0,0,1,3,5.56c.3.91.39,1.88.68,2.79.4-1.07,1-2.25.54-3.41C46.17,278.1,44.89,275.33,42.41,273.9Zm.34,3c-.16,1.94-1.08,3.76-.94,5.73a4.17,4.17,0,0,0,2.33,3.67,3.46,3.46,0,0,0,1.42-1.05A13.16,13.16,0,0,0,42.75,276.9Zm6.77,2.18c-.72,2-.45,4.28-1.2,6.31a5.71,5.71,0,0,1-3.68,3.1l1.15.88a5.82,5.82,0,0,0,3.74-3c.94-2,.14-4.23.54-6.32.51.59.15,1.39.22,2.09a9,9,0,0,1-.43,4.72,5.92,5.92,0,0,1-3.6,3c.22.41.42.82.6,1.24A6.49,6.49,0,0,0,51,285.22c.24-1.82-.41-3.62-.3-5.44l-.17.45c-.12-.16-.24-.33-.35-.5a7.2,7.2,0,0,0,.71-2.45A4,4,0,0,0,49.52,279.08Zm-7.91,9.57a6.31,6.31,0,0,1,1.16,2.7c.26,1.49-.32,3,.23,4.48a4.51,4.51,0,0,0,1.77,2.2c.13-.47.26-.95.4-1.42a6.5,6.5,0,0,1-.86-4.32,3.74,3.74,0,0,0-1.12-3.05A6.67,6.67,0,0,0,41.61,288.65Zm10.46.47c-.29,1.27,0,2.64-.62,3.85a8,8,0,0,1-2,2.7,5.6,5.6,0,0,0-1.37,5,8.07,8.07,0,0,0,1.18.58,6.47,6.47,0,0,1,.33-4c.5-1.17,1.59-1.95,2.06-3.14A8,8,0,0,0,52.07,289.12Zm-7.83.76a6.34,6.34,0,0,1,.4,2.66,5.39,5.39,0,0,0,1,3.35c.36-.36.73-.71,1.1-1.05A6.86,6.86,0,0,0,44.24,289.88Zm5.25,4.41c-.73.86-1.77,1.38-2.44,2.29a6.1,6.1,0,0,0-1.23,3.84,15.26,15.26,0,0,1,1.64.12,6.52,6.52,0,0,1,.53-3.7c.55-1.06,1.6-1.71,2.3-2.65a5.6,5.6,0,0,0,1.19-2.66A21.73,21.73,0,0,1,49.49,294.29Zm4,1.66a19.83,19.83,0,0,0-.41,3.42,8.64,8.64,0,0,1-1.29,5A7,7,0,0,0,51,310a11.05,11.05,0,0,0,1.26.79,11.75,11.75,0,0,1-.16-2.9c.25-2.46,1.55-4.67,1.82-7.12A10.94,10.94,0,0,0,53.46,296ZM51.06,302a11.12,11.12,0,0,0-1.86,3.6,6.14,6.14,0,0,0,.22,4l.77.2a10.23,10.23,0,0,1,.2-3.62A22.7,22.7,0,0,1,52,302.9a9.2,9.2,0,0,0,.82-3.72C52.16,300.1,51.72,301.12,51.06,302ZM43,300.3a9.77,9.77,0,0,0,4.94,7.81,12.92,12.92,0,0,1,.32-2.69A7.8,7.8,0,0,1,43.76,301Zm1.71,1.05A7.49,7.49,0,0,0,48.34,305a13.55,13.55,0,0,1,.73-1.65C48.09,301.83,46.19,301.87,44.68,301.35ZM54.13,315c.45-.3.23-.86.25-1.3-.09-2.47-.1-5.14,1.3-7.29-.06-.63-.08-1.27-.09-1.9C53.31,307.46,53.1,311.55,54.13,315Zm1.67-7.78a14.88,14.88,0,0,0-1.06,7.11C56.35,312.41,57.13,309.51,55.8,307.23Zm-9.42,6.64A9.87,9.87,0,0,0,53,316.21c-.08-.63-.74-.56-1.2-.7a8.77,8.77,0,0,1-6-4.79c-.41-1-1.37-1.59-1.7-2.62A8.18,8.18,0,0,0,46.38,313.87Zm-.05-3.5a10.37,10.37,0,0,0,6.5,4.92,6.07,6.07,0,0,0-2.06-3.67C49.52,310.61,47.82,310.7,46.33,310.37Z" transform="translate(-30.76 -187.65)"/><path class="cls-2" d="M54.48,317.16A7.29,7.29,0,0,1,59.55,314c.38.86.37,1.91,1.1,2.58.31.36,1,.89.44,1.34a10.4,10.4,0,0,1-2.08-.1,4.94,4.94,0,0,0-3.62,1.05A30.54,30.54,0,0,0,60,323.92l-.43.59a29.44,29.44,0,0,1-4.48-5.4,1.34,1.34,0,0,0,.2.73A36.78,36.78,0,0,0,61.45,328l-1,.74a38.18,38.18,0,0,1-5.77-8.56,1.78,1.78,0,0,0-.63-.78A22.85,22.85,0,0,0,53.4,322a7.8,7.8,0,0,0,.89,4.47,1.22,1.22,0,0,0-1.29-.08,7.27,7.27,0,0,1,.82-6.78c-1.31.72-1.9,2.12-2.61,3.35-.17.33-.66.71-1,.29-.26-1.19-.43-2.71-1.69-3.27-.35-.21-1.09-.38-.82-.95,1.46-1.4,3.67-1.32,5.56-1.37A2,2,0,0,1,54.48,317.16Zm6.26,10.53" transform="translate(-30.76 -187.65)"/><path class="cls-2" d="M56,318.61a6.31,6.31,0,0,1,5.35.72c-.22.49-.44,1-.67,1.47a5,5,0,0,0-2.09-1.74A11.43,11.43,0,0,0,56,318.61Z" transform="translate(-30.76 -187.65)"/><path class="cls-2" d="M144,207.45a10.69,10.69,0,0,1,5.44.48c1.6.63,2.93,1.85,4.65,2.15s3.65-.41,5.49-.19a7.41,7.41,0,0,1,3.76,1.34c-.92-1.42-2.33-2.72-4.13-2.67a5.81,5.81,0,0,1,3.53-.46c1.84.48,2.44,2.76,4.33,3.17,2.32.38,4.78.78,6.67,2.3a5.83,5.83,0,0,1,2.28,4.07,3.67,3.67,0,0,0,0-2.61,9.26,9.26,0,0,0-2.35-3.14,5.58,5.58,0,0,1,3.61,1.43c1.13,1.26.86,3.16,1.81,4.53.52.82,1.5,1.13,2.23,1.74a9.2,9.2,0,0,1,3.06,5.81,6.38,6.38,0,0,1,2.09-4.28c-.19,2.53.11,5.46,2.15,7.23,2.49,2.26,5.09,5,5.16,8.61a7.46,7.46,0,0,1,1.88-4.2,9.79,9.79,0,0,0,.19,4.87c.41,1.34,1.71,2.1,2.34,3.31a8.4,8.4,0,0,1,.4,7.21,4.12,4.12,0,0,0,1.13-1.15,4.83,4.83,0,0,0,.32-1.81c1,1.05.67,2.54.34,3.79-.21,2.62,2.47,4.43,2.37,7a6.74,6.74,0,0,1-1.27,3.62,5.58,5.58,0,0,0,2.76-2.94,5.13,5.13,0,0,0,.14-2.37,9.11,9.11,0,0,1,.52,6.76c-.73,2.64.86,5.22.42,7.87a10.58,10.58,0,0,1-.53,1.74,5.1,5.1,0,0,1,4.17-1.89,9.55,9.55,0,0,0-3,4.62c-.4,1.5.22,3,.49,4.44.46,2.22.91,4.63.07,6.82a4.71,4.71,0,0,1-2.77,2.64,5,5,0,0,0,3.61-1.6,16.23,16.23,0,0,0,1.85-3,7.66,7.66,0,0,1-1.16,5.57c-.59,1-1.6,1.72-2.21,2.74-.55,1.3,0,2.76-.39,4.1a5.8,5.8,0,0,1-1,1.92,6.81,6.81,0,0,1,3.46-.74,7.84,7.84,0,0,0-2.32,2.41c-1,1.66-.46,3.88-1.8,5.39a4.72,4.72,0,0,1,4.09-.34,8.7,8.7,0,0,0-3.58,2.85,8.94,8.94,0,0,0-1.52,4.27,7.47,7.47,0,0,1-3,5.13,8.35,8.35,0,0,1-7.12,1.06c-2.84-2-4.89-5.5-4.41-9.06.1-1.46,1-2.75.93-4.22a6.54,6.54,0,0,0-.86-3,5.15,5.15,0,0,1,3.46,2.61,17.93,17.93,0,0,1-.55-5.45c.1-1.82.69-3.73-.13-5.47a3.94,3.94,0,0,0-1.48-1.63,5.77,5.77,0,0,1,3.8,2.17,14.44,14.44,0,0,1-.42-5.44,4.44,4.44,0,0,0-2-4,5.1,5.1,0,0,1,3.52,2,11.82,11.82,0,0,1-1.1-3.94c-.12-1.37.36-2.8-.19-4.12a6.42,6.42,0,0,0-2.62-2.67,8.4,8.4,0,0,1,3.43.9,5.78,5.78,0,0,1-1.56-2.58c-.69-2.09.09-4.42-.93-6.44a6.84,6.84,0,0,0-3.45-3.21,7.74,7.74,0,0,1,3.4.49c-1.79-1.93-1.52-4.72-1.87-7.14-.38-2-2.34-3.11-4.11-3.74a5.78,5.78,0,0,1,2.94-.3,9,9,0,0,1-3.07-3.47c-.61-1.1-.7-2.44-1.53-3.42a10.53,10.53,0,0,0-3.84-2.66,6.18,6.18,0,0,1,2.63-.32,8,8,0,0,1-3.1-2.39c-.72-1-.94-2.25-1.84-3.09a8.78,8.78,0,0,0-4.42-1.95c.94-.78,2.31-.5,3.44-.61a6.57,6.57,0,0,1-2.82-1.91c-1.09-1.27-1.62-3-3.05-4a6.55,6.55,0,0,0-4.88-1,3.8,3.8,0,0,1,2.91-1.61,9,9,0,0,1-4.36-1.94c-.94-.7-1.74-1.67-2.92-1.94a7.86,7.86,0,0,0-3.91.17c.71-1.59,2.57-2,4.15-2a15.9,15.9,0,0,1-6.17-3.42c-2.57-2.32-3.7-5.77-6.16-8.18C148.14,207.76,146,207.74,144,207.45Zm8.66,3.43a16.89,16.89,0,0,0,4.11,5.06,15.16,15.16,0,0,0,9.41,3.55c.05-.49.07-1,.09-1.49a17.72,17.72,0,0,1-11-6.45A6.3,6.3,0,0,1,152.7,210.88Zm3.26.64c2.36,3.41,6.36,5.36,10.38,6a6.06,6.06,0,0,0-2.61-4.77C161.41,211.3,158.58,211.49,156,211.52Zm10,1.42a6.1,6.1,0,0,1,1.56,1.68,8.43,8.43,0,0,1,6.47,5.79h1.11a6,6,0,0,0-2.11-4.62A14.06,14.06,0,0,0,166,212.94Zm1.92,2.35a29.86,29.86,0,0,0,1.75,3.37c.88,1.21,2.46,1.56,3.86,1.74A8,8,0,0,0,167.88,215.29Zm8.92,4.21a3.4,3.4,0,0,0,.95,2.35c.9,1.19,2.34,1.74,3.52,2.59a13.89,13.89,0,0,1,2,1.72,6.26,6.26,0,0,0-1-2.54,11.65,11.65,0,0,0-3.46-2.65,4.45,4.45,0,0,1-1.8-2.87A9.34,9.34,0,0,0,176.8,219.5Zm-9.53,2.12a15.8,15.8,0,0,0,8.35,3.23,5.29,5.29,0,0,0-3.43-3.54A14.06,14.06,0,0,0,167.27,221.62Zm-3.22-.14a7.74,7.74,0,0,0,3.08,3,17.5,17.5,0,0,0,9,1.62c-.17-.26-.19-.73-.57-.75a16.8,16.8,0,0,1-9.09-3.6A11.75,11.75,0,0,1,164.05,221.48Zm12.72.06a5.08,5.08,0,0,0,1.1,2.52c1.23,1.23,2.88,2,4.06,3.25a5.2,5.2,0,0,1,1.11,2.27,5.28,5.28,0,0,0,.2-2.19,7.34,7.34,0,0,0-3.8-3.48A7.5,7.5,0,0,1,176.77,221.54Zm-5.87,5.36a10.24,10.24,0,0,0,1.41.95,19.55,19.55,0,0,1,11.3,6.75,5.58,5.58,0,0,0,.73.64c.44-2-.86-4-2.5-5C178.6,228.09,174.67,227.45,170.9,226.9Zm14.26-.08c0,3.48.14,7.14,1.82,10.28a7.16,7.16,0,0,0,4.32,3.6l.28-1a12.68,12.68,0,0,1-5.35-9.78C186.31,228.74,185.39,227.9,185.16,226.82Zm-12.69,1.42a20.31,20.31,0,0,0,3.61,4.69,10.38,10.38,0,0,0,7.47,2.26A21.68,21.68,0,0,0,172.47,228.24Zm14.24,1.37a11.2,11.2,0,0,0,5,9.51,7.48,7.48,0,0,0-.55-4.36C190.19,232.67,188.29,231.24,186.71,229.61ZM179,237.17a7.23,7.23,0,0,0,4.18,4.74c3.31,1.22,7.17,1.71,9.64,4.49a6.73,6.73,0,0,0-.17-2,5.92,5.92,0,0,0-2-1.54c-2.31-1.22-5-1.18-7.42-2.24a4.76,4.76,0,0,1-1.92-1.58A10.47,10.47,0,0,0,179,237.17Zm2.32,1.55a7.18,7.18,0,0,0,4.13,2.32c2.24.51,4.59.69,6.65,1.78a5.57,5.57,0,0,0-3.16-2.5C186.41,239.56,183.76,239.51,181.28,238.72Zm14.42,4c.88,2,.4,4.31-.12,6.38l.71.61a7.44,7.44,0,0,0,1.1-5.88,9.24,9.24,0,0,0-1.94-3.38A5.78,5.78,0,0,0,195.7,242.75Zm-1.54,4.07a2.93,2.93,0,0,0,1.08,1.73,10.63,10.63,0,0,0-.06-5.57C194.5,244.12,193.8,245.46,194.16,246.82Zm-9.26-3a6.22,6.22,0,0,1,.8,1.85,15.42,15.42,0,0,1,9.39,8.09l1-.15C194.27,248.73,189.67,245.48,184.9,243.83Zm1,2.87a10.63,10.63,0,0,0,3.54,5.37,8.6,8.6,0,0,0,5.18,1.72A15.28,15.28,0,0,0,185.92,246.7Zm11.4,9.35a9.59,9.59,0,0,0,1.71,4.71c.33-.17.69-.38.43-.79a10.4,10.4,0,0,1-.24-8.15,11,11,0,0,1-.48-1.47A9.94,9.94,0,0,0,197.32,256.05Zm2.68,3.86a6.57,6.57,0,0,0,1-2.23c.44-1.84-.4-3.7-1.4-5.21A8.18,8.18,0,0,0,200,259.91Zm-8.94-5.81a6.39,6.39,0,0,1,.79,2.86,22.73,22.73,0,0,0,0,3.3,8.7,8.7,0,0,0,1.8,3.88,5.78,5.78,0,0,0,3.6,2.3c.06-.54.14-1.09.22-1.63-1.94-.57-3.87-2-4.22-4.07-.45-1.83.06-3.68-.06-5.53A15.62,15.62,0,0,0,191.06,254.1Zm3,7.48a3.91,3.91,0,0,0,3.56,2.19,8.41,8.41,0,0,1,.91-2.14,13.81,13.81,0,0,0-4.86-6.09A12,12,0,0,0,194.09,261.58Zm5,3.59a8.63,8.63,0,0,0,.58,5.23,13.17,13.17,0,0,1,2.46-7.41c.49-.66.32-1.55.44-2.31A7,7,0,0,0,199.09,265.17Zm1,5.47c-.16,1,.56,1.76,1,2.57a7.58,7.58,0,0,0,2.54-5.18,18.29,18.29,0,0,0-.89-3.84A9.77,9.77,0,0,0,200.06,270.64Zm-6.29-4.83a13.2,13.2,0,0,1,.55,1.68c3,2.16,4.41,5.93,4.54,9.53l.61.36a8.26,8.26,0,0,0-.31-5.83A13.28,13.28,0,0,0,193.77,265.81Zm.57,2.33a12.65,12.65,0,0,0,.6,5,7.65,7.65,0,0,0,3.61,3.73C198.16,273.67,197.08,270.16,194.34,268.14Zm5.19,12.73a4.19,4.19,0,0,0,.66,3.26,15.88,15.88,0,0,1,3.22-7.83c.62-.65.49-1.62.69-2.43C201.63,275.41,200.29,278.16,199.53,280.87ZM201,284.3a2.55,2.55,0,0,0,.07,1.1,5.76,5.76,0,0,0,1.39.94,4.58,4.58,0,0,0,2.18-2.89c.49-2.23-.68-4.34-.84-6.53A12.78,12.78,0,0,0,201,284.3Zm-5.37-7c.08,1.2.73,2.25.89,3.43.3,1.67-.32,3.4.25,5a5.6,5.6,0,0,0,4,3.62q.54-.47,1.11-.9a5.68,5.68,0,0,1-3.64-3c-.78-2-.49-4.27-1.21-6.31A3.66,3.66,0,0,0,195.61,277.29Zm.35,2.45c-.3,2.44-.86,5-.1,7.37a6.47,6.47,0,0,0,3.74,4.06c.22-.43.45-.87.68-1.29a5.59,5.59,0,0,1-3.85-3.56C195.67,284.18,196.65,281.9,196,279.74Zm7.29,9.57a3.57,3.57,0,0,0-1,2.77,7.08,7.08,0,0,1-.61,4.09c-.45.57,0,1.25.14,1.85a4.46,4.46,0,0,0,1.84-2.4c.43-1.32-.06-2.7.13-4.05a6.05,6.05,0,0,1,1.19-2.92A5.71,5.71,0,0,0,203.25,289.31Zm-8.92-.32c-.24,2.32-.05,4.92,1.62,6.72a6.15,6.15,0,0,1,1.33,5.57c.39-.19.8-.37,1.21-.55a6.54,6.54,0,0,0-.55-4,13,13,0,0,0-1.82-2.11,5.88,5.88,0,0,1-1.47-3.78A5.83,5.83,0,0,0,194.33,289Zm5.5,5.83,1.12,1.06a5.43,5.43,0,0,0,.92-3.12,8.64,8.64,0,0,1,.35-2.86A7,7,0,0,0,199.83,294.82Zm-4.77-3.24a7,7,0,0,0,2.58,4.08,5.69,5.69,0,0,1,1.43,4.89c.54-.08,1.09-.12,1.64-.15a6.32,6.32,0,0,0-1.19-3.76c-.73-1-1.89-1.57-2.66-2.53A27.66,27.66,0,0,1,195.06,291.58Zm-1.84,11.77c.85,2.39,1.71,4.95,1,7.5a7.21,7.21,0,0,1,1.3-.8,7.14,7.14,0,0,0-.66-5.5,9,9,0,0,1-1.36-3.77c-.18-1,.1-2-.15-3a8.08,8.08,0,0,1-.23-2A11.69,11.69,0,0,0,193.22,303.35Zm1.31-.54a31.52,31.52,0,0,1,1.54,3.21,10.43,10.43,0,0,1,.26,3.82c.28-.13.73-.08.84-.44a5.84,5.84,0,0,0,.17-3.74c-.63-2.48-2.65-4.26-3.56-6.62A8.19,8.19,0,0,0,194.53,302.81Zm7.95-1.27a7.43,7.43,0,0,1-4.18,3.85,15.3,15.3,0,0,1,.31,2.69,9.93,9.93,0,0,0,5-7.82A3,3,0,0,0,202.48,301.54Zm-4.92,1.68c0,.6.46,1.16.63,1.74a7.54,7.54,0,0,0,3.65-3.59C200.39,301.87,198.5,301.79,197.56,303.22Zm-6.63,1.25c0,.65,0,1.3-.07,1.95,1.64,2.56,1.29,5.73,1.28,8.62.51-.34.48-1,.61-1.55A11.61,11.61,0,0,0,190.93,304.47Zm.84,9.86a13.54,13.54,0,0,0-1.09-7.06C189.39,309.55,190.18,312.41,191.77,314.33Zm9-3.67a8.85,8.85,0,0,1-2.92,3.47,12,12,0,0,1-4.23,1.68l-.08.42c2.37-.11,4.89-.68,6.61-2.42a7.9,7.9,0,0,0,2.26-5.53C202,309.17,201.18,309.76,200.79,310.66Zm-5,.91a6.17,6.17,0,0,0-2.14,3.7,10.23,10.23,0,0,0,6.52-4.91C198.73,310.71,197.07,310.61,195.82,311.57Z" transform="translate(-30.76 -187.65)"/><path class="cls-2" d="M186.55,315.35c.19-.43.09-1.13.61-1.31,2,.11,3.65,1.56,4.84,3.09a2,2,0,0,1,1.18.48c1.78,0,3.73,0,5.26,1.06.24.17.69.66.23.87s-1.22.54-1.57,1.12a8,8,0,0,0-.89,2.63c-.48.32-.86-.24-1.05-.62a7.38,7.38,0,0,0-2.43-3.11,7.56,7.56,0,0,1,.83,6.78c-.43-.12-.87-.28-1.24.07a8,8,0,0,0,0-7.09,39.8,39.8,0,0,1-6.28,9.42l-.93-.77a34.39,34.39,0,0,0,6.56-8.92,15.78,15.78,0,0,0-1.5,1.95,24.55,24.55,0,0,1-3.12,3.48.49.49,0,0,1-.12-.82,31.54,31.54,0,0,0,4.25-4.91,5.9,5.9,0,0,0-2.6-.93,16.84,16.84,0,0,0-2.84.13c-.31.05-.71-.39-.48-.66C185.68,316.64,186.41,316.17,186.55,315.35Z" transform="translate(-30.76 -187.65)"/><path class="cls-2" d="M185.15,319.33a6.54,6.54,0,0,1,5-.86l-.05.25a4.62,4.62,0,0,0-4.22,2C185.43,320.44,185.43,319.76,185.15,319.33Z" transform="translate(-30.76 -187.65)"/><path class="cls-2" d="M181.33,256.62a62.56,62.56,0,0,0-63.77-38.57A61.88,61.88,0,0,0,97,223.61a62.45,62.45,0,0,0-36,60.22,62.1,62.1,0,0,0,9,29,62.55,62.55,0,0,0,106.66.29,62.07,62.07,0,0,0,8.6-23.45A62.76,62.76,0,0,0,181.33,256.62Z" transform="translate(-30.76 -187.65)"/><path class="cls-3" d="M117.56,218.05a62.55,62.55,0,0,1,21.31,122.89,63.38,63.38,0,0,1-33.77-.8A62.56,62.56,0,0,1,97,223.61,61.75,61.75,0,0,1,117.56,218.05ZM108,223.73A58.66,58.66,0,0,0,64.64,278c5,0,10,0,15,0,.35.5.69,1,1,1.53h-16v1.23c5.64,0,11.27,0,16.91,0,.33.51.67,1,1,1.52H64.64c-.26,1.16.74,1.87,1.24,2.78H64.82l.08,1.29H67c.38.48.75,1,1.1,1.47-1,0-2,0-2.95,0,0,.43.09.85.13,1.28,1.3,0,2.59,0,3.88,0,.38.48.75,1,1.11,1.46H65.52c.08.43.16.86.25,1.29,1.8,0,3.6-.05,5.39,0,.54.34.84,1,1.26,1.46-2.11,0-4.21,0-6.32,0l.27,1.24c2.37.08,4.74,0,7.11.06l1.11,1.51c-2.59,0-5.17,0-7.75,0,.14.39.09.92.42,1.21,2.76.06,5.52,0,8.28,0A10.41,10.41,0,0,1,76.71,299c-3,0-6,0-9,0l.39,1.2c3.19,0,6.37,0,9.55,0a6.14,6.14,0,0,1,1.26,1.51c-3.39,0-6.79,0-10.18,0,.15.39.29.79.44,1.19,3.58.06,7.16,0,10.74,0,.4.51.8,1,1.19,1.54-3.73,0-7.46,0-11.19,0a12.09,12.09,0,0,0,.6,1.26c3.85-.07,7.7,0,11.55,0,.41.5.8,1,1.19,1.53-4,0-8,0-12,0q.31.62.66,1.23c4.1,0,8.2,0,12.31,0,.39.5.79,1,1.17,1.53-4.19,0-8.39,0-12.59,0a6.09,6.09,0,0,0,.81,1.25c4.25.06,8.51,0,12.76,0a13.75,13.75,0,0,1,1.15,1.49h-13c.28.42.57.83.84,1.25q6.56.06,13.12,0a15.64,15.64,0,0,1,1.2,1.49c-4.39,0-8.79,0-13.18,0,.31.41.62.83.92,1.25,12.22.06,24.44,0,36.65,0a2.07,2.07,0,0,0-.53,1.5c-11.58,0-23.15,0-34.73,0,.42.55.8,1.43,1.63,1.3h34.4c1-.06,1.43.92,2,1.54-11.8,0-23.61,0-35.41,0a13.49,13.49,0,0,0,1.17,1.22h37.23a18.14,18.14,0,0,1,2.07.21,12.8,12.8,0,0,0,1,1.35q-19.28,0-38.55,0c.55.44,1,1.25,1.82,1.21h36.79a8.17,8.17,0,0,0,.09,1.56q-17.65,0-35.3,0c.58.49,1.14,1.2,2,1.22h68a14.78,14.78,0,0,0,1.53-1.21c-9.68,0-19.36,0-29,0a4.08,4.08,0,0,0,1.09-1.56c9.83.05,19.67,0,29.5,0,.8,0,1.28-.77,1.83-1.22q-15.48,0-31,0a2.92,2.92,0,0,0,.31-1.56H164.3a15.13,15.13,0,0,0,1.18-1.22q-17.64,0-35.29,0a14.34,14.34,0,0,1-1.47-1.55c12.78,0,25.57,0,38.35,0l1-1.26c-13.36,0-26.73,0-40.09,0-.72,0-1.38-.42-2.11-.35a9.1,9.1,0,0,1-4.71-1.11c16.08-.06,32.16,0,48.25-.06l.93-1.24H151.85c.44-.5.89-1,1.35-1.48,6.09,0,12.18,0,18.27,0,.29-.42.58-.84.86-1.27H154.39c.39-.51.81-1,1.24-1.46,5.89,0,11.78,0,17.67,0,.26-.42.51-.86.77-1.29-5.74,0-11.47.06-17.2,0,.44-.5.89-1,1.34-1.49,5.48,0,11,0,16.45,0,.62,0,.65-.81.94-1.21-5.42,0-10.84,0-16.26,0a9.63,9.63,0,0,1,1.41-1.51c5.18-.07,10.37,0,15.55,0l.18-.1.48-1.14H161.83c.45-.52.9-1,1.37-1.54,4.83,0,9.67,0,14.5,0,.15-.4.29-.8.44-1.19-4.6,0-9.21,0-13.82,0,.44-.52.9-1,1.37-1.53,4.36,0,8.72,0,13.08,0l.39-1.2c-4.11,0-8.21,0-12.32,0a8.53,8.53,0,0,1,1.3-1.45,6.28,6.28,0,0,1,1.79-.09c3.27,0,6.54,0,9.81,0,.08-.4.16-.8.25-1.2-3.54,0-7.08,0-10.62,0a12,12,0,0,1,1.32-1.53c2.89,0,5.78,0,8.67,0a3.14,3.14,0,0,0,1.1-.1c.13-.38.21-.78.31-1.17-3-.08-6,0-9,0l1.32-1.48h8c.07-.43.15-.86.23-1.28-2.32,0-4.64,0-7,0a6.12,6.12,0,0,1,1.41-1.46c1.94-.06,3.89,0,5.83,0l.12-1.27h-4.87a7.64,7.64,0,0,1,1.34-1.44c1.25-.08,2.5,0,3.75,0l.09-1.28h-2.71c.34-.41.68-.82,1.05-1.21.44-.56,1.23-.26,1.84-.34a7.35,7.35,0,0,1-.05-1.93c-.39.34-.79.81-1.36.71q-10.41,0-20.79,0c.35-.51.72-1,1.09-1.52,7.05,0,14.09,0,21.14,0v-1.23H162c.36-.52.75-1,1.14-1.54q9.51,0,19,0a59.9,59.9,0,0,0-2.47-14.67,58.94,58.94,0,0,0-34.57-37.52A59.16,59.16,0,0,0,108,223.73ZM91.52,329.52a13.35,13.35,0,0,0,1.9,1.18,16.2,16.2,0,0,0,2.09,0H153c.91,0,1.59-.76,2.34-1.21Q123.42,329.49,91.52,329.52Zm4.9,2.79a6,6,0,0,0,2.85,1.21q24.28,0,48.56,0a7,7,0,0,0,2.59-1.2c-6.06-.07-12.12,0-18.18,0C120.3,332.3,108.36,332.24,96.42,332.31Zm6.12,2.74a9.87,9.87,0,0,0,4.52,1.23c11.23,0,22.46,0,33.69,0a14.6,14.6,0,0,0,3.57-1.21Zm9.45,2.79a59.85,59.85,0,0,0,22.87,0Q123.42,337.8,112,337.84Z" transform="translate(-30.76 -187.65)"/><path class="cls-3" d="M117.75,233c.78-.51,1.5.2,2.24.41a6.57,6.57,0,0,0,1.88,1.25c.4.25,0,.64-.2.88a2.11,2.11,0,0,0-.08,2.86c.47.81,1.53.48,2.25.24.54-.19.47-1,.9-1.23a7.52,7.52,0,0,0,1.79.59c.42.39,0,1,0,1.52a3.59,3.59,0,0,0,.37,2.13c0,1-.08,2-.13,3,0,.63-.73.81-1.12,1.17s-.13.71-.11,1.07c.22.8-.3,1.52-.43,2.3-.08.49-.23,1.18.33,1.45a7.71,7.71,0,0,0,2.07-1.08c1.27-1,2.12-2.49,3.6-3.19.57-.23,1,.34,1.5.49,1.24.41,2.59.72,3.4,1.83.62-.5,1.47-1,1.49-1.9.09-.35-.07-.83.3-1.05a8.86,8.86,0,0,0,1.59-1.53c.57-.45,1,.31,1.49.58.71.66,1.81.2,2.57.72.43.72.63,1.54,1,2.27a3.71,3.71,0,0,1,.76,1.41c.76.87,2.17.75,2.92,1.62.19,2.07,0,4.16.32,6.22a3.92,3.92,0,0,0,2,2.29c.91.48,2,.27,2.89.85-.48,1-.61,2.64.66,3.16.15,1-.73,1.79-.5,2.78a2.48,2.48,0,0,0,.59,1.38,6.23,6.23,0,0,0-.86,2.54l-.52.15c0,.15-.07.44-.1.59-.49.43-.93.92-1.46,1.31-.73.16-1.07-.75-1.68-1A3.17,3.17,0,0,0,147,271a1.71,1.71,0,0,1-1.35-.05c-.52-.17-1.05.09-1.57.12-.79.15-1.29-.86-2.08-.63a13.86,13.86,0,0,1-2.64.36,1.84,1.84,0,0,0-1.68.95,9.61,9.61,0,0,1-2.09,3.12c-.64.61-1.75.87-1.91,1.87-.16.72-.3,1.74.49,2.14a2.49,2.49,0,0,1,1,1.63,26.64,26.64,0,0,1,.56,3.56c0,1.15.9,2,1.17,3.12a2.42,2.42,0,0,1-2-.54c-.7-.56-1.13-1.73-2.21-1.45a10.83,10.83,0,0,1-.21-1.11,4.94,4.94,0,0,0-5-2.09c-.93.11-1.87.19-2.79.39a.65.65,0,0,1-.67-.67c-.09-1.2.25-2.37.24-3.57a1.06,1.06,0,0,0-1-1.14c-1-.07-2,0-3.07,0a2.82,2.82,0,0,0-1.93.43,4,4,0,0,0-.5,1.49c-.14.69.66,1.33.26,2-.52,1-.14,2.1-.21,3.16s0,2.35-.07,3.53c-.63,2.39-2,4.52-2.65,6.9-.37.5-1.11.58-1.53,1.07a26.55,26.55,0,0,0-.29,5c0,.54.44.87.8,1.19a6.66,6.66,0,0,0-.82.94,4.73,4.73,0,0,0,.21,1.39,3.05,3.05,0,0,0,2.08-1.09,8.35,8.35,0,0,1,1.46,1.45,11.46,11.46,0,0,1,.07,2c0,.63.49,1.08.82,1.56s1.1.8,1.64,1.21a6.33,6.33,0,0,1,.29,1.63,4,4,0,0,1,1,2.15,4.67,4.67,0,0,0,.44,1.79c-1,0-1.77-.82-2.76-.93,0,.76-.11,1.65.45,2.27a6.35,6.35,0,0,0,2.15,1.88,10.06,10.06,0,0,0,4,1c.85,0,1.91-.06,2.43.74a9,9,0,0,0,3.37,3.07c0,.7-.6,1.25-.69,2-.12,1-1.06,1.46-1.69,2.1-.67.16-1-.69-1.52-1a5.66,5.66,0,0,1-2.38.92c-.35,0-.89-.14-.87-.58-.07-.94.16-1.86.18-2.8-.92-.12-1.25-1-1.63-1.7a4.58,4.58,0,0,1-2.2-.41c-.67-.49-1.55-.23-2.27-.54-.55-.2-.83-.75-1.21-1.14a11,11,0,0,0-2.35-1.61c.5-.31,1-.7.89-1.36a6.91,6.91,0,0,0-1.75-.95,3.34,3.34,0,0,1-1.28-1.93c-.1-.51-.66-.65-1-.9l-.36-.75c-1.42-.17-1.12-2-2.18-2.6-.7-.41-1.53.41-2.22,0a2,2,0,0,1-.42-2.31c.63-1.7.58-3.57,1.28-5.24.93-2.41,1.48-5,2.92-7.17a3.37,3.37,0,0,0,.35-1.5c.23-.47.78-.47,1.22-.56.07-.2.13-.39.2-.58,1.27-1.39,2.94-2.91,2.75-5a22.73,22.73,0,0,0-1.08-4c-.37-1-.46-2.18-1.27-3a2.43,2.43,0,0,1-.7-1.27c.22-.61.84-1,.93-1.66a4.3,4.3,0,0,0-1.38-3.71c-.54-.73-1.47-1-2.07-1.66s-1.52-1.5-2.25-2.27-.26-2-.42-3,.54-1.5,1.21-1.91a2.43,2.43,0,0,0,1.07-1.81,5.48,5.48,0,0,1-.17-2.75c.27-.5.64-.94.88-1.45a3.52,3.52,0,0,1-1.07-1.61l-.61-.27a14.07,14.07,0,0,1,.59-1.69,1.64,1.64,0,0,1-1.1-1.65c-.86-.79-2.1-1.33-2.43-2.54a5.59,5.59,0,0,1-1.54-1.74,7.53,7.53,0,0,0-.12-2.8l-.91.16c-.36-.52-1.06-1.07-.82-1.76s1.5-.19,2-.8c.25-.4,0-.83-.19-1.19.1-.41.21-.83.34-1.24a1.43,1.43,0,0,0,.49-1.64c-.31-1.23.8-2.14,1.6-2.88,1.55-.64,3.26-.23,4.87-.23a3,3,0,0,1,.54-1.2c.6-.29,1.23-.54,1.83-.86.55.16,1,.8,1.62.62.65-.47,1-1.22,1.7-1.68.42-.29.93,0,1.38,0C117.69,233.53,117.73,233.19,117.75,233Z" transform="translate(-30.76 -187.65)"/><path class="cls-3" d="M73.81,268.25c4.61,3.94,9.06,8.07,13.63,12.06.12-1.87,0-3.75.08-5.63,2.74,3.92,5.37,7.92,8.07,11.87,2.16,3.24,4.39,6.43,6.52,9.69-3.11-2.86-6.1-5.86-9.2-8.75.12,3.12.36,6.24.48,9.36-1.69-2.22-3.16-4.6-4.77-6.87C83.69,282.73,78.72,275.51,73.81,268.25Z" transform="translate(-30.76 -187.65)"/><path class="cls-3" d="M167.18,270.2c.74-.63,1.43-1.35,2.24-1.92q-8.79,12-17.64,24c-1.08,1.44-2.09,2.94-3.24,4.33.31-2.92.67-5.83,1-8.75-3.71,3.25-7.24,6.72-11,9.94,1.64-2.46,3.47-4.78,5.2-7.18,4.14-5.63,8.24-11.29,12.42-16.9-.21,2.28-.42,4.56-.6,6.85C159.44,277.12,163.3,273.65,167.18,270.2Z" transform="translate(-30.76 -187.65)"/><path class="cls-3" d="M86.18,278c.32-.31.87.23.62.57S86,278.3,86.18,278Z" transform="translate(-30.76 -187.65)"/><path class="cls-3" d="M90.76,278q10.09,0,20.19,0a3.54,3.54,0,0,0-.14,1.55H91.75A12,12,0,0,1,90.76,278Z" transform="translate(-30.76 -187.65)"/><path class="cls-3" d="M119.15,278.07c1.37-.09,2.76,0,4.13-.05,0,.51,0,1,0,1.53-1.48.05-3,0-4.43,0C118.82,279.06,118.75,278.4,119.15,278.07Z" transform="translate(-30.76 -187.65)"/><path class="cls-3" d="M134.82,278c5.73,0,11.47,0,17.2,0-.35.53-.73,1-1.12,1.54-5,0-10.05,0-15.07,0A12,12,0,0,0,134.82,278Z" transform="translate(-30.76 -187.65)"/><path class="cls-3" d="M156.6,278.06c.22-.19.41-.17.56,0C157.2,278.75,156,278.68,156.6,278.06Z" transform="translate(-30.76 -187.65)"/><path class="cls-3" d="M92.61,280.81H111.3c.86-.13.86,1,1.14,1.53-6.12,0-12.24,0-18.35,0C93.25,282.41,93,281.35,92.61,280.81Z" transform="translate(-30.76 -187.65)"/><path class="cls-3" d="M119.14,280.81c1.29,0,2.58,0,3.86,0a7.12,7.12,0,0,0,.19,1.53c-1.5.05-3,0-4.48,0A3.8,3.8,0,0,1,119.14,280.81Z" transform="translate(-30.76 -187.65)"/><path class="cls-3" d="M136.13,280.84c4.62-.07,9.23,0,13.85,0-.34.52-.71,1-1.08,1.54H136.36C136.29,281.84,136.21,281.34,136.13,280.84Z" transform="translate(-30.76 -187.65)"/><path class="cls-3" d="M65.55,283.59c5.92,0,11.85,0,17.78,0,.38.5.73,1,1.07,1.55q-8.33,0-16.66,0C66.86,284.91,66.25,284.12,65.55,283.59Z" transform="translate(-30.76 -187.65)"/><path class="cls-3" d="M94.47,283.59c6.09,0,12.18,0,18.27,0a9,9,0,0,1,.6,1.55c-6,0-11.93,0-17.89,0C95.12,284.6,94.79,284.1,94.47,283.59Z" transform="translate(-30.76 -187.65)"/><path class="cls-3" d="M118.82,283.58h11.81a2.55,2.55,0,0,1,1,1.51c-4.27.1-8.54,0-12.8.06C118.84,284.63,118.82,284.1,118.82,283.58Z" transform="translate(-30.76 -187.65)"/><path class="cls-3" d="M136.71,283.58c3.75,0,7.49,0,11.24,0a6.51,6.51,0,0,1-1.19,1.51c-3.3,0-6.6,0-9.89,0A5.24,5.24,0,0,1,136.71,283.58Z" transform="translate(-30.76 -187.65)"/><path class="cls-3" d="M159.1,283.57c6.86,0,13.72,0,20.58,0-.82.6-1.52,1.7-2.66,1.54-6.35,0-12.7,0-19.05,0C158.33,284.6,158.7,284.08,159.1,283.57Z" transform="translate(-30.76 -187.65)"/><path class="cls-3" d="M69.12,286.44c5.4-.07,10.8,0,16.21,0l.94,1.46c-5.1,0-10.19,0-15.29,0A13.27,13.27,0,0,1,69.12,286.44Z" transform="translate(-30.76 -187.65)"/><path class="cls-3" d="M96.36,286.42c5.77,0,11.53,0,17.29,0a6.8,6.8,0,0,1,.1,1.5c-5.46,0-10.93,0-16.4,0C97,287.41,96.68,286.91,96.36,286.42Z" transform="translate(-30.76 -187.65)"/><path class="cls-3" d="M118.85,286.41c4.15,0,8.29,0,12.44,0a4.85,4.85,0,0,0-.29,1.45c-4.09.08-8.18,0-12.27,0C118.77,287.39,118.82,286.9,118.85,286.41Z" transform="translate(-30.76 -187.65)"/><path class="cls-3" d="M132.33,288.22c-.7-.48-.28-1.43.26-1.85a13.16,13.16,0,0,0,1.08,1.27C133.25,287.87,132.85,288.33,132.33,288.22Z" transform="translate(-30.76 -187.65)"/><path class="cls-3" d="M137.69,286.41c2.74,0,5.48,0,8.21,0-.36.51-.73,1-1.13,1.49-2.44,0-4.88,0-7.32,0A2.9,2.9,0,0,0,137.69,286.41Z" transform="translate(-30.76 -187.65)"/><path class="cls-3" d="M157,286.41c6.39,0,12.77,0,19.15,0-.83.57-1.58,1.53-2.67,1.47-5.84,0-11.68,0-17.52,0C156.29,287.37,156.64,286.88,157,286.41Z" transform="translate(-30.76 -187.65)"/><path class="cls-3" d="M68.16,286.66c4,3.17,7.93,6.57,11.94,9.79-.3-1.69-.87-3.32-1.19-5,6,6.29,11.91,12.75,17.91,19.08a6.58,6.58,0,0,1,.83,1.06c-3.59-2.36-7.13-4.81-10.78-7.08.59,2.85,1.26,5.69,1.81,8.55-5.5-7-10.93-14-16.41-21.05C70.91,290.22,69.47,288.48,68.16,286.66Z" transform="translate(-30.76 -187.65)"/><path class="cls-3" d="M173.61,289.15a22.46,22.46,0,0,1,2.48-1.62c-5.66,6.37-11.4,12.67-17.08,19-2.2,2.42-4.36,4.89-6.6,7.29.56-2.91,1.35-5.77,2-8.66-3.65,2.24-7.22,4.62-10.88,6.85,6.21-6.65,12.57-13.16,18.83-19.77a10.89,10.89,0,0,1,1-.93c-.48,2-1,3.95-1.48,5.95C165.8,294.6,169.69,291.85,173.61,289.15Z" transform="translate(-30.76 -187.65)"/><path class="cls-3" d="M134.05,288.52l1.29.05a4.19,4.19,0,0,1-.07,2.08C134.22,290.58,134,289.35,134.05,288.52Z" transform="translate(-30.76 -187.65)"/><path class="cls-3" d="M72.57,289.19c1.64-.06,3.28,0,4.91-.05a14.6,14.6,0,0,1,.43,1.51c-1.2,0-2.41.05-3.62,0A6.94,6.94,0,0,1,72.57,289.19Z" transform="translate(-30.76 -187.65)"/><path class="cls-3" d="M77.91,289.18q4.64,0,9.29,0l1,1.46c-3,0-6,0-9,0C78.78,290.17,78.33,289.69,77.91,289.18Z" transform="translate(-30.76 -187.65)"/><path class="cls-3" d="M93.77,289.3q.69.69,1.41,1.35c-.47,0-.94,0-1.4,0C93.78,290.18,93.78,289.74,93.77,289.3Z" transform="translate(-30.76 -187.65)"/><path class="cls-3" d="M98.24,289.17c5,0,10,0,15,0-.38.45-.71.94-1.1,1.39a3.91,3.91,0,0,1-1.08.09c-3.77,0-7.54,0-11.3,0C98.88,290.78,98.67,289.71,98.24,289.17Z" transform="translate(-30.76 -187.65)"/><path class="cls-3" d="M117.68,290.65c.24-.49.46-1,.68-1.47,4.89,0,9.79,0,14.68,0,.17.5.35,1,.54,1.49Z" transform="translate(-30.76 -187.65)"/><path class="cls-3" d="M136.46,289.17c2.47,0,4.93,0,7.4,0l-1.05,1.46c-2.17,0-4.35,0-6.52,0C136.35,290.16,136.4,289.66,136.46,289.17Z" transform="translate(-30.76 -187.65)"/><path class="cls-3" d="M153.9,290.64a6,6,0,0,1,1.18-1.45c3.06-.05,6.13,0,9.19,0-.45.5-.91,1-1.37,1.47C159.9,290.64,156.9,290.66,153.9,290.64Z" transform="translate(-30.76 -187.65)"/><path class="cls-3" d="M164.28,290.64c.12-.5.26-1,.4-1.49,2.49.06,5,0,7.46.05a10.57,10.57,0,0,1-2,1.4C168.2,290.71,166.24,290.62,164.28,290.64Z" transform="translate(-30.76 -187.65)"/><path class="cls-3" d="M147.52,290.63c.35-.32.7-.63,1.06-.93-.05.31-.1.62-.14.94Z" transform="translate(-30.76 -187.65)"/><path class="cls-3" d="M75.9,291.94h2.33c.13.5.24,1,.35,1.52C77.42,293.64,76.62,292.68,75.9,291.94Z" transform="translate(-30.76 -187.65)"/><path class="cls-3" d="M80.46,291.93h8.6c.35.49.69,1,1,1.49H82.56C81.53,293.63,81.08,292.52,80.46,291.93Z" transform="translate(-30.76 -187.65)"/><path class="cls-3" d="M100.18,291.93c3.47,0,6.95,0,10.42,0a3.4,3.4,0,0,0-1.13,1.49c-2.81,0-5.63,0-8.45,0A9.77,9.77,0,0,1,100.18,291.93Z" transform="translate(-30.76 -187.65)"/><path class="cls-3" d="M117.12,291.94c8.24,0,16.49,0,24.73,0-.35.48-.7,1-1,1.46-8.1.05-16.2,0-24.3,0Z" transform="translate(-30.76 -187.65)"/><path class="cls-3" d="M146.26,292c.66-.06,1.33,0,2,0,0,.5-.06,1-.09,1.51h-3.51A7.69,7.69,0,0,1,146.26,292Z" transform="translate(-30.76 -187.65)"/><path class="cls-3" d="M152.93,291.94h8.72a15.17,15.17,0,0,1-1.43,1.46c-2.79.07-5.58,0-8.37,0C152.2,292.92,152.56,292.43,152.93,291.94Z" transform="translate(-30.76 -187.65)"/><path class="cls-3" d="M163.94,291.94h4.34a20,20,0,0,1-2.13,1.45c-.85.09-1.7,0-2.55,0C163.71,292.92,163.82,292.43,163.94,291.94Z" transform="translate(-30.76 -187.65)"/><path class="cls-3" d="M93.88,292a20.35,20.35,0,0,1,2.59,0,20.32,20.32,0,0,1,1.61,1.47c-1.37,0-2.73,0-4.1,0C94,292.93,93.92,292.45,93.88,292Z" transform="translate(-30.76 -187.65)"/><path class="cls-3" d="M83,294.71h8c.35.5.68,1,1,1.55-2.5,0-5,0-7.51,0C84,295.74,83.5,295.22,83,294.71Z" transform="translate(-30.76 -187.65)"/><path class="cls-3" d="M94.07,294.69c1.79,0,3.58,0,5.37,0l1.52,1.53c-2.27,0-4.55,0-6.83,0C94.1,295.73,94.08,295.21,94.07,294.69Z" transform="translate(-30.76 -187.65)"/><path class="cls-3" d="M102,294.71c2.36,0,4.72,0,7.08,0a13.74,13.74,0,0,0-.78,1.53q-2.7,0-5.4,0A15.56,15.56,0,0,1,102,294.71Z" transform="translate(-30.76 -187.65)"/><path class="cls-3" d="M116.12,294.72c7.89,0,15.79,0,23.69,0-.35.51-.71,1-1.07,1.52-8.1,0-16.21,0-24.32,0C115,295.72,115.76,295.44,116.12,294.72Z" transform="translate(-30.76 -187.65)"/><path class="cls-3" d="M143.19,294.73c1.6-.05,3.2,0,4.81,0-.06.51-.13,1-.2,1.54-2.05,0-4.1,0-6.14,0C142.17,295.74,142.69,295.24,143.19,294.73Z" transform="translate(-30.76 -187.65)"/><path class="cls-3" d="M150.91,294.7c2.68,0,5.36,0,8.05,0-.45.52-.92,1-1.37,1.52-2.59,0-5.18,0-7.77,0A17,17,0,0,1,150.91,294.7Z" transform="translate(-30.76 -187.65)"/><path class="cls-3" d="M163.25,294.72h1.05c-.43.31-.88.61-1.33.89C163.06,295.3,163.16,295,163.25,294.72Z" transform="translate(-30.76 -187.65)"/><path class="cls-3" d="M85.61,297.49q3.63,0,7.26,0,.52.75,1,1.53c-2.25,0-4.51,0-6.76,0A11.34,11.34,0,0,1,85.61,297.49Z" transform="translate(-30.76 -187.65)"/><path class="cls-3" d="M94.21,297.48h8.13c.56.5,1.12,1,1.64,1.54-3.23,0-6.47,0-9.71,0Z" transform="translate(-30.76 -187.65)"/><path class="cls-3" d="M103.83,297.48h4q-.28.78-.6,1.56c-.8,0-1.61,0-2.41,0C104.49,298.51,104.15,298,103.83,297.48Z" transform="translate(-30.76 -187.65)"/><path class="cls-3" d="M114.42,297.49c1.09,0,2.18,0,3.27,0a2.79,2.79,0,0,0-1.25,1.53h-2.23Z" transform="translate(-30.76 -187.65)"/><path class="cls-3" d="M118.55,297.49q9.61,0,19.22,0c-.37.52-.76,1-1.15,1.53-5.55,0-11.1,0-16.65,0A2.86,2.86,0,0,0,118.55,297.49Z" transform="translate(-30.76 -187.65)"/><path class="cls-3" d="M138.8,299a5.56,5.56,0,0,1,1.69-1.52c2.39-.06,4.79,0,7.19,0-.07.51-.13,1-.2,1.55C144.59,299,141.7,299,138.8,299Z" transform="translate(-30.76 -187.65)"/><path class="cls-3" d="M147.77,299a5.11,5.11,0,0,1,1.2-1.52c2.45-.06,4.91,0,7.36,0-.47.49-.94,1-1.39,1.51C152.55,299,150.16,299,147.77,299Z" transform="translate(-30.76 -187.65)"/><path class="cls-3" d="M117.77,298.56c1-.5,1.5,1,1.41,1.76-.36.4-.89-.15-1.27-.29A.85.85,0,0,1,117.77,298.56Z" transform="translate(-30.76 -187.65)"/><path class="cls-3" d="M88.24,300.25c5.48,0,11,0,16.44,0a3.48,3.48,0,0,1,1.06.19l.35-.2.76,0c-.16.51-.33,1-.5,1.53q-8.35,0-16.72,0C89.15,301.28,88.68,300.78,88.24,300.25Z" transform="translate(-30.76 -187.65)"/><path class="cls-3" d="M114.12,300.25c.67,0,1.33,0,2,0a8.85,8.85,0,0,0-.91,1.65A5.75,5.75,0,0,0,114.12,300.25Z" transform="translate(-30.76 -187.65)"/><path class="cls-3" d="M119.66,301.23c.2-.33.4-.65.59-1q7.71,0,15.43,0l-1.11,1.51c-4.86.06-9.73,0-14.59,0Z" transform="translate(-30.76 -187.65)"/><path class="cls-3" d="M136,301.77a13.64,13.64,0,0,1,1.5-1.54c5.4,0,10.8,0,16.2,0-.43.53-.9,1-1.38,1.53C146.83,301.79,141.39,301.8,136,301.77Z" transform="translate(-30.76 -187.65)"/><path class="cls-3" d="M116.25,301.73c.32-.46.72-1.16,1.36-1,.56.63,1.6,1,1.53,2a5.32,5.32,0,0,1-1.72.22A4.73,4.73,0,0,1,116.25,301.73Z" transform="translate(-30.76 -187.65)"/><path class="cls-3" d="M90.82,303c5,0,10,0,15.06,0-.07.53-.15,1-.25,1.57H92.2A20.2,20.2,0,0,1,90.82,303Z" transform="translate(-30.76 -187.65)"/><path class="cls-3" d="M120,303c4.55-.06,9.1,0,13.65,0-.39.51-.77,1-1.15,1.54H118.34c-.37.07-.37-.45-.55-.64A3.42,3.42,0,0,0,120,303Z" transform="translate(-30.76 -187.65)"/><path class="cls-3" d="M132.94,304.53a14,14,0,0,1,1.69-1.5c5.47-.07,11,0,16.41,0-.45.52-.92,1-1.4,1.53Q141.29,304.56,132.94,304.53Z" transform="translate(-30.76 -187.65)"/><path class="cls-3" d="M93.39,305.78h12c-.15.51-.31,1-.48,1.54-3.37,0-6.74,0-10.11,0C94.33,306.83,93.85,306.31,93.39,305.78Z" transform="translate(-30.76 -187.65)"/><path class="cls-3" d="M118.11,305.77q15.12,0,30.24,0c-.58.57-1,1.61-1.94,1.54-9.27,0-18.53,0-27.8,0A1.94,1.94,0,0,1,118.11,305.77Z" transform="translate(-30.76 -187.65)"/><path class="cls-3" d="M88,306.13a6.75,6.75,0,0,1,1.72,1.18H88.23Z" transform="translate(-30.76 -187.65)"/><path class="cls-3" d="M152.62,307.36c-.19-.31.32-.67.57-.43S152.86,307.59,152.62,307.36Z" transform="translate(-30.76 -187.65)"/><path class="cls-3" d="M88.51,308.55c1.07,0,2.15-.07,3.22,0a12,12,0,0,1,2.2,1.49c-1.7,0-3.41,0-5.11,0C88.72,309.57,88.61,309.05,88.51,308.55Z" transform="translate(-30.76 -187.65)"/><path class="cls-3" d="M96,308.57c3-.05,5.92,0,8.88,0a5.76,5.76,0,0,0,.74,1.54c-2.75,0-5.49,0-8.24,0C96.9,309.57,96.43,309.07,96,308.57Z" transform="translate(-30.76 -187.65)"/><path class="cls-3" d="M120.3,308.54c8.48,0,17,0,25.44,0-.45.52-.93,1-1.41,1.51-7.85,0-15.7,0-23.54,0A7.64,7.64,0,0,0,120.3,308.54Z" transform="translate(-30.76 -187.65)"/><path class="cls-3" d="M148,310.09a22.43,22.43,0,0,1,2.37-1.49,17.89,17.89,0,0,1,2.43-.05c-.12.52-.24,1-.37,1.56C151,310.07,149.51,310.09,148,310.09Z" transform="translate(-30.76 -187.65)"/><path class="cls-3" d="M89.13,311.37c2.28,0,4.57-.05,6.85,0a12.7,12.7,0,0,1,2.15,1.42c-2.9.05-5.81,0-8.72,0C89.31,312.35,89.22,311.86,89.13,311.37Z" transform="translate(-30.76 -187.65)"/><path class="cls-3" d="M98.61,311.38c2.13,0,4.26,0,6.39,0-.09.49-.17,1-.25,1.49H100C99.5,312.38,99,311.89,98.61,311.38Z" transform="translate(-30.76 -187.65)"/><path class="cls-3" d="M108.53,311.45" transform="translate(-30.76 -187.65)"/><path class="cls-3" d="M121.36,311.38c7.23,0,14.46,0,21.69,0-.44.52-.91,1-1.39,1.47H121.89A3.34,3.34,0,0,0,121.36,311.38Z" transform="translate(-30.76 -187.65)"/><path class="cls-3" d="M143.79,312.83a9.43,9.43,0,0,1,2.32-1.43c2-.07,4,0,6.06,0l-.33,1.48C149.16,312.85,146.47,312.88,143.79,312.83Z" transform="translate(-30.76 -187.65)"/><path class="cls-3" d="M105.91,311.66c.58,0,1.16.08,1.74.1a3.66,3.66,0,0,1-.77,2.29H106A3.29,3.29,0,0,1,105.91,311.66Z" transform="translate(-30.76 -187.65)"/><path class="cls-3" d="M108.5,312.55a2.73,2.73,0,0,1,2.43,1.46c-1,0-1.92,0-2.87.1A8.63,8.63,0,0,0,108.5,312.55Z" transform="translate(-30.76 -187.65)"/><path class="cls-3" d="M89.73,314.13h9.54c1.17-.12,2,.89,2.9,1.47-4,0-8.08,0-12.12,0C89.94,315.12,89.83,314.62,89.73,314.13Z" transform="translate(-30.76 -187.65)"/><path class="cls-3" d="M101.19,314.14c1.24,0,2.48,0,3.72,0,.28.29.49.77,1,.79,2,.17,3.89,0,5.84,0l.36.64h-9C102.15,315.67,101.77,314.65,101.19,314.14Z" transform="translate(-30.76 -187.65)"/><path class="cls-3" d="M122.3,314.13c6,0,12.06,0,18.09,0-.42.51-.88,1-1.34,1.44-5.8.05-11.6,0-17.4,0A1.62,1.62,0,0,0,122.3,314.13Z" transform="translate(-30.76 -187.65)"/><path class="cls-3" d="M139.65,315.6a13.47,13.47,0,0,1,2.23-1.44c3.21,0,6.43-.05,9.65,0-.11.47-.22.94-.32,1.41C147.36,315.64,143.5,315.62,139.65,315.6Z" transform="translate(-30.76 -187.65)"/><path class="cls-3" d="M119.81,315.39" transform="translate(-30.76 -187.65)"/><path class="cls-2" d="M68.59,333.06a3.39,3.39,0,0,0-1.1-.74,2.58,2.58,0,0,0-1.09-.21l.5.52-4.81,4.73L60.75,336l4-4-.6-.61,1.25-1.23a11.41,11.41,0,0,0,1.31.38,7.82,7.82,0,0,1,1.44.47,5,5,0,0,1,1.45,1,4.49,4.49,0,0,1,1.28,2.33,2.38,2.38,0,0,1-.68,2.28l-4.51,4.42-1.34-1.36,4.45-4.36a1.26,1.26,0,0,0,.41-1.07A2.11,2.11,0,0,0,68.59,333.06Z" transform="translate(-30.76 -187.65)"/><path class="cls-2" d="M75,337.05a3.38,3.38,0,0,1,1.37,2.12,2.85,2.85,0,0,1-.78,2.22l-3.91,4.73-1.47-1.21L74,340.32a1.75,1.75,0,0,0,.53-1.23,1.23,1.23,0,0,0-.49-.8,1.1,1.1,0,0,0-1.22-.18,3.06,3.06,0,0,0-1.07.88l-.15.19-.13.19-1.51-1.24a5,5,0,0,1,2.15-1.66A2.79,2.79,0,0,1,75,337.05Z" transform="translate(-30.76 -187.65)"/><path class="cls-2" d="M77.26,348.34a.61.61,0,0,0,.58.08.82.82,0,0,0,.43-.36l1.56-2.31-1.67-1.13a.86.86,0,0,0-.56-.12.6.6,0,0,0-.47.25l-1.81-1.22a6.94,6.94,0,0,1,2.38-2.43,2.8,2.8,0,0,1,3,.36,11.4,11.4,0,0,1,1.13.93,6.38,6.38,0,0,0,.64.52,3.29,3.29,0,0,0,.56.32,3.61,3.61,0,0,0,.63.2l-1,1.45a2.23,2.23,0,0,1-.51-.15,3.57,3.57,0,0,1-.48-.25,6.58,6.58,0,0,1-.68-.55,12,12,0,0,0-1.21-1,1.3,1.3,0,0,0-.87-.27,1,1,0,0,0-.72.51.82.82,0,0,1,.21,0,1.19,1.19,0,0,1,.56.2l3.29,2.22-2.45,3.64a2,2,0,0,1-1.69.95,3.87,3.87,0,0,1-2.13-.76,4.16,4.16,0,0,1-1.51-1.62,2,2,0,0,1,.17-2,1.79,1.79,0,0,1,1.21-.8,1.8,1.8,0,0,1,1.41.28,1.83,1.83,0,0,1,.81,1.21,1.8,1.8,0,0,1-.28,1.42,2.22,2.22,0,0,1-.24.3A3.08,3.08,0,0,1,77.26,348.34Zm-1.52-1.93a.61.61,0,0,0-.1.47.57.57,0,0,0,.26.38.59.59,0,0,0,.85-.17.56.56,0,0,0,.09-.45.61.61,0,0,0-.26-.39.57.57,0,0,0-.46-.09A.55.55,0,0,0,75.74,346.41Z" transform="translate(-30.76 -187.65)"/><path class="cls-2" d="M87.22,341.67l-1.32.17-1-1.82.87-1.59,1.09,1.85,1.62-.29a2.93,2.93,0,0,1,.76,1,1.85,1.85,0,0,1-.12,1.69l-4.1,7.52.17.05.21.1a1.91,1.91,0,0,1,1,1.2,1.88,1.88,0,0,1-.16,1.52,2.08,2.08,0,0,1-2.82.81,2.15,2.15,0,0,1-1.16-1.39,2.23,2.23,0,0,1,.27-1.64l4.8-8.79A.25.25,0,0,0,87.22,341.67ZM83.9,351.78a.61.61,0,0,0-.06.49.68.68,0,0,0,.33.4.64.64,0,0,0,.49.05.63.63,0,0,0,.39-.31.67.67,0,0,0,0-.5.6.6,0,0,0-.31-.39.62.62,0,0,0-.5-.06A.65.65,0,0,0,83.9,351.78Z" transform="translate(-30.76 -187.65)"/><path class="cls-2" d="M90.21,357l-2.28-.94,1.92-4.67-.18,0-.22-.08a2,2,0,0,1-1.08-1.08,2,2,0,0,1,1.11-2.64,2,2,0,0,1,1.6,0,2.14,2.14,0,0,1,1.31,1.25,2.27,2.27,0,0,1-.09,1.65l-1.23,3,3.58-4.24-.33,5.58,2.91-7.07,1.77.73-4.29,10.4L92.63,358l.15-4.14Zm.62-7.32a.62.62,0,0,0,0-.5.64.64,0,0,0-.37-.35.64.64,0,0,0-.84.35.67.67,0,0,0,0,.5A.65.65,0,0,0,90,350a.67.67,0,0,0,.5,0A.59.59,0,0,0,90.83,349.68Z" transform="translate(-30.76 -187.65)"/><path class="cls-2" d="M100.9,360.67l-2.39-.61,1.26-4.89h-.18l-.23-.05a1.89,1.89,0,0,1-1.22-.92,1.91,1.91,0,0,1-.21-1.51,2.07,2.07,0,0,1,2.54-1.48,2.12,2.12,0,0,1,1.46,1.06,2.23,2.23,0,0,1,.14,1.64l-.81,3.14,3-4.69.44,5.57,1.92-7.4,1.85.48-2.82,10.89-2.18-.56L103,357.2Zm-.4-7.33a.6.6,0,0,0-.06-.49.67.67,0,0,0-.41-.3.6.6,0,0,0-.49.07.59.59,0,0,0-.3.39.62.62,0,0,0,.06.5.6.6,0,0,0,.4.29.63.63,0,0,0,.5-.06A.61.61,0,0,0,100.5,353.34Z" transform="translate(-30.76 -187.65)"/><path class="cls-2" d="M101.48,347.49a1.3,1.3,0,0,1,.57-.89,1.53,1.53,0,0,1,1.15-.19,1.35,1.35,0,0,1,.94.62,1.55,1.55,0,0,1,.2,1.12,2.09,2.09,0,0,1-.43.93,8.88,8.88,0,0,0,1.49-.39l.62-.25.54,1.29a10.11,10.11,0,0,1-2.3.6,13.59,13.59,0,0,1-2.61.21l-.3-1.23a2.35,2.35,0,0,0,.58-.14c.16-.06.24-.13.26-.21a1.51,1.51,0,0,1-.57-.55A1.26,1.26,0,0,1,101.48,347.49Zm1,.17a.38.38,0,0,0,.07.3.39.39,0,0,0,.25.17.41.41,0,0,0,.31-.06.41.41,0,0,0,.17-.26.42.42,0,0,0-.06-.31.4.4,0,0,0-.27-.16.42.42,0,0,0-.31.06A.38.38,0,0,0,102.43,347.66Z" transform="translate(-30.76 -187.65)"/><path class="cls-2" d="M111.38,353.57a3.38,3.38,0,0,1,2.28,1.08,2.87,2.87,0,0,1,.5,2.3l-.83,6.08-1.9-.26.81-5.89a1.8,1.8,0,0,0-.19-1.32,1.26,1.26,0,0,0-.84-.43,1.11,1.11,0,0,0-1.13.49,2.85,2.85,0,0,0-.45,1.31l0,.24c0,.11,0,.18,0,.24l-1.94-.27a5,5,0,0,1,1-2.54A2.8,2.8,0,0,1,111.38,353.57Z" transform="translate(-30.76 -187.65)"/><path class="cls-2" d="M123.89,358.26a24.67,24.67,0,0,1-.5,3.11,13.62,13.62,0,0,0-.27,2.17l-2.46-.06a9.83,9.83,0,0,0-.42-3.36c-.35-1.08-.83-1.64-1.42-1.65a1,1,0,0,0-.82.4,1.15,1.15,0,0,0-.29.68,1.34,1.34,0,0,1,.41,0,2,2,0,0,1,1.3,3.44,1.87,1.87,0,0,1-1.43.55,2.06,2.06,0,0,1-1.69-.88,3.33,3.33,0,0,1-.59-2.1,4.29,4.29,0,0,1,.91-2.66,2.88,2.88,0,0,1,2.46-1.14,2.31,2.31,0,0,1,2,1.14,5.44,5.44,0,0,1,.7,2.1,4.49,4.49,0,0,0,.26-1.38,2.81,2.81,0,0,0-.67-2,2.68,2.68,0,0,0-2.06-.87,3,3,0,0,0-1.43.29,1.64,1.64,0,0,0-.94,1l-1.89-.06a3.33,3.33,0,0,1,1.61-2,5.35,5.35,0,0,1,2.84-.63l.63,0,.44.06.67-.89,2.56.07-1.29,1.5a2.8,2.8,0,0,1,1.07,1.24A4.12,4.12,0,0,1,123.89,358.26Zm-6.5,3.24a.6.6,0,0,0,.17.46.62.62,0,0,0,.47.2.65.65,0,0,0,.49-1.09.6.6,0,0,0-.46-.2.62.62,0,0,0-.46.17A.57.57,0,0,0,117.39,361.5Z" transform="translate(-30.76 -187.65)"/><path class="cls-2" d="M123.39,353.15l-1.91.07-.11-3.15,1.91-.07Z" transform="translate(-30.76 -187.65)"/><path class="cls-2" d="M128.27,355.69a1.61,1.61,0,0,0-1.27.7,2.45,2.45,0,0,0-.34,1.62l-2,.18a3.62,3.62,0,0,1,.71-2.71,3.89,3.89,0,0,1,2.84-1.32,4,4,0,0,1,2.65.52,2.7,2.7,0,0,1,1.1,2.13l.34,3.88a2.43,2.43,0,0,1-.45,1.75,2,2,0,0,1-1.51.79,2.22,2.22,0,0,1-1.61-.44,1.91,1.91,0,0,1-.75-1.41,1.93,1.93,0,0,1,.47-1.45,1.85,1.85,0,0,1,1.35-.71l.28,0,.17,0-.18-2.05a1.6,1.6,0,0,0-.49-1.12A1.66,1.66,0,0,0,128.27,355.69Zm1.77,6.16a.67.67,0,0,0,.45-.22.61.61,0,0,0,.15-.48.62.62,0,0,0-.23-.45.69.69,0,0,0-.48-.15.64.64,0,0,0-.44.23.66.66,0,0,0,.08.93A.6.6,0,0,0,130,361.85Z" transform="translate(-30.76 -187.65)"/><path class="cls-2" d="M135.39,357.44l-.17.07-.22.06a1.93,1.93,0,0,1-1.51-.28,2,2,0,0,1-.87-1.26,2.05,2.05,0,0,1,.29-1.54,2,2,0,0,1,1.33-.91,2.14,2.14,0,0,1,1.78.29,2.24,2.24,0,0,1,.86,1.41l1,4.68,2.37-2.24-1.09-5.12,1.87-.4,1.08,5.06.26-.08a1.92,1.92,0,0,1,1.49.28,1.89,1.89,0,0,1,.86,1.24,2,2,0,0,1-.27,1.48,1.88,1.88,0,0,1-1.25.87,2.21,2.21,0,0,1-1.51-.17,2.17,2.17,0,0,1-1-1.09l-2.16,2.14-2.09.45Zm-.16-2a.64.64,0,0,0-.28-.41.63.63,0,0,0-.5-.09.65.65,0,0,0-.42.28.64.64,0,0,0-.08.49.58.58,0,0,0,.28.41.6.6,0,0,0,.49.09.66.66,0,0,0,.51-.77Zm6.91,3.77a.65.65,0,0,0,.28.42.67.67,0,0,0,.5.08.65.65,0,1,0-.27-1.27.65.65,0,0,0-.41.28A.61.61,0,0,0,142.14,359.25Z" transform="translate(-30.76 -187.65)"/><path class="cls-2" d="M150.17,352.24a1.39,1.39,0,0,0-.89-.86,2.09,2.09,0,0,0-1.47.06,3.23,3.23,0,0,0-1.16.74,2,2,0,0,0-.56.84l1-.37,1.56,4.31a2.14,2.14,0,0,1-1.42,2.93,1.92,1.92,0,0,1-1.52-.08,2,2,0,0,1-1-2.65,1.91,1.91,0,0,1,1.13-1l.25-.08a.44.44,0,0,1,.15,0l-.55-1.51-1.56.56-.65-1.8a12.45,12.45,0,0,0,1-1.06,11.79,11.79,0,0,1,1.22-1.23,5.51,5.51,0,0,1,1.68-1,4.28,4.28,0,0,1,2.69-.18,2.45,2.45,0,0,1,1.77,1.61l2.12,5.88-1.8.65Zm-3.82,5.16a.64.64,0,0,0-.39.83.63.63,0,0,0,.33.37.66.66,0,0,0,.5,0,.65.65,0,0,0,.37-.34.62.62,0,0,0,0-.5.67.67,0,0,0-.33-.37A.64.64,0,0,0,146.35,357.4Z" transform="translate(-30.76 -187.65)"/><path class="cls-2" d="M153.82,362.13l-1.31-3,2-.84,1.83,4.21-5,2.19-.66-1.51a1.31,1.31,0,0,1-1,0,1.4,1.4,0,0,1-.81-.79,1.44,1.44,0,0,1,0-1.15,1.54,1.54,0,0,1,.86-.84,1.7,1.7,0,0,1,1.43,0,2,2,0,0,1,1,1.05l.54,1.24Zm-4.13-.11a.52.52,0,0,0,.3.28.49.49,0,0,0,.41,0,.5.5,0,0,0,.29-.3.49.49,0,0,0,0-.41.55.55,0,0,0-.29-.29.51.51,0,0,0-.42,0,.57.57,0,0,0-.28.72Z" transform="translate(-30.76 -187.65)"/><path class="cls-2" d="M156,352l-.46-.9-.14.11-.2.11a2,2,0,0,1-1.54.14,1.92,1.92,0,0,1-1.17-1,2,2,0,0,1-.13-1.56,2,2,0,0,1,1.05-1.24,2.13,2.13,0,0,1,1.79-.18,2.21,2.21,0,0,1,1.21,1.13l1.52,2.94,3.21.24-3.28-6.35,1.7-.88,4.13,8-2.26,1.17-2.69-.18a2.14,2.14,0,0,1-.22,1.29,2.42,2.42,0,0,1-1.09,1.08,2,2,0,0,1-1.59.14,2.13,2.13,0,0,1-1.37-2.63,2,2,0,0,1,1-1.23l.27-.13Zm-1.15-2.75a.61.61,0,0,0-.37-.32.62.62,0,0,0-.5,0,.64.64,0,0,0-.32.38.62.62,0,0,0,0,.5.68.68,0,0,0,.38.33.63.63,0,0,0,.5-.06.58.58,0,0,0,.32-.38A.6.6,0,0,0,154.84,349.26Zm1,5.14a.73.73,0,0,0,1.33-.1.69.69,0,0,0,0-.56.71.71,0,0,0-.42-.36.73.73,0,0,0-.56.05.72.72,0,0,0-.3,1Z" transform="translate(-30.76 -187.65)"/><path class="cls-2" d="M150.16,346.19a2.69,2.69,0,0,0,.74-.86c.46-.72.74-1.15.84-1.27a4.42,4.42,0,0,1,1.2-1.15,5.13,5.13,0,0,1,1.88-.62l2.46-.34.79,1.31-7.1,4.27Zm3.5-2.23a2.72,2.72,0,0,0-.68.6,3.62,3.62,0,0,0-.49.78l3-1.82a2.2,2.2,0,0,0-.93.08A3.32,3.32,0,0,0,153.66,344Z" transform="translate(-30.76 -187.65)"/><path class="cls-2" d="M167.62,342.66a1.4,1.4,0,0,0-1.08-.61,2.17,2.17,0,0,0-1.4.44,3.27,3.27,0,0,0-.93,1,2,2,0,0,0-.33.95l.89-.61,2.61,3.76a2.22,2.22,0,0,1,.45,1.63,2.24,2.24,0,0,1-1.05,1.56,2,2,0,0,1-2.78-.5,2,2,0,0,1,.5-2.78,1.8,1.8,0,0,1,.22-.14l.13-.06-.91-1.31-1.36.94-1.1-1.57a11.21,11.21,0,0,0,.7-1.29,13.87,13.87,0,0,1,.87-1.5,5.79,5.79,0,0,1,1.37-1.38,4.27,4.27,0,0,1,2.55-.86,2.47,2.47,0,0,1,2.13,1.09l3.57,5.13-1.57,1.09Zm-2.35,6a.6.6,0,0,0-.27.42.56.56,0,0,0,.11.48.61.61,0,0,0,.41.27.61.61,0,0,0,.49-.11.68.68,0,0,0,.27-.41.63.63,0,0,0-.1-.5.64.64,0,0,0-.91-.15Z" transform="translate(-30.76 -187.65)"/><path class="cls-2" d="M170.15,336.78a3.44,3.44,0,0,1,2.31-1,2.89,2.89,0,0,1,2.07,1.12l4.05,4.62-1.43,1.26-3.93-4.46a1.74,1.74,0,0,0-1.13-.72,1.21,1.21,0,0,0-.87.35,1.11,1.11,0,0,0-.37,1.18,3.18,3.18,0,0,0,.7,1.2l.16.18a.9.9,0,0,1,.17.16l-1.47,1.29a5.2,5.2,0,0,1-1.29-2.39A2.81,2.81,0,0,1,170.15,336.78Z" transform="translate(-30.76 -187.65)"/><path class="cls-2" d="M177.54,332.88a1.71,1.71,0,0,1,3,1.09,1.61,1.61,0,0,1-.44,1.23,1.38,1.38,0,0,1-.42.32l2.19,2.76-1.5,1.64a11.79,11.79,0,0,0-1.69-1.29l-1.79-1.11a9,9,0,0,1-1.31-.93,3.07,3.07,0,0,1-1.08-2.34,4.57,4.57,0,0,1,1.41-2.94,5.67,5.67,0,0,1,2.56-1.81,2.46,2.46,0,0,1,2.36.71l4.59,4.22-1.31,1.42-4.49-4.13a1.29,1.29,0,0,0-1.26-.33,2.79,2.79,0,0,0-1.35.88,2,2,0,0,0,.08,3.15,4.3,4.3,0,0,0,.57.44,6,6,0,0,0,.72.41l-.73-.91a2.13,2.13,0,0,1-.53-1.32A1.63,1.63,0,0,1,177.54,332.88Zm.85,1.64a.56.56,0,0,0,.45.16.57.57,0,0,0,.44-.2.58.58,0,0,0,.16-.45.64.64,0,0,0-.19-.44.67.67,0,0,0-.45-.16.63.63,0,0,0-.44.2.64.64,0,0,0-.17.45A.57.57,0,0,0,178.39,334.52Z" transform="translate(-30.76 -187.65)"/><path class="cls-4" d="M324.22,223.84q46,0,91.91,0v18.52H350.4v24.49H411q0,9.3,0,18.6c-20.22,0-40.44,0-60.66,0,0,9.23,0,18.46,0,27.69h71.21q18.27-44.67,36.56-89.32c10.06,0,20.12,0,30.18,0q21.78,54,43.51,107.93c-8.89,0-17.78,0-26.67,0-3-7.21-5.81-14.46-8.75-21.67-15.63,0-31.25,0-46.87,0-3,7.22-5.88,14.48-8.93,21.67q-58.22-.09-116.42,0V272a35.92,35.92,0,0,1-33,21.39c-11.76-.12-23.52-.05-35.27-.05q0,19.23,0,38.47H229.81q0-54,0-107.93h59.51c7.69.08,15.62,1.22,22.41,5A28.1,28.1,0,0,1,324.16,243C324.28,236.62,324.18,230.23,324.22,223.84ZM256,242.37v32.32h29.5a15.17,15.17,0,0,0,11.6-5.56c3.21-3.66,4.36-8.7,4.34-13.46a12.54,12.54,0,0,0-6.35-11c-4.52-2.49-9.86-2.27-14.86-2.25Zm217.37,7.5q-7.77,20.86-15.59,41.73h32.42Q481.75,270.74,473.35,249.87Z" transform="translate(-30.76 -187.65)"/><path class="cls-4" d="M223,356.59V344.75h3.87a23.49,23.49,0,0,1,2.49.08A3.33,3.33,0,0,1,231.4,346a3.68,3.68,0,0,1,.73,2.38,3.23,3.23,0,0,1-2.06,3.37,9.53,9.53,0,0,1-3.12.36h-1.57v4.47Zm2.41-9.84v3.36h1.32a6.44,6.44,0,0,0,2-.21,1.61,1.61,0,0,0-.07-3,8,8,0,0,0-2-.17Z" transform="translate(-30.76 -187.65)"/><path class="cls-4" d="M234.13,356.59V344.75h5.08a7.31,7.31,0,0,1,3.28.55,2.87,2.87,0,0,1,1.42,2.76q0,2.85-3.16,3.31a8,8,0,0,1,2.66,2.91l1.46,2.31H242l-2.6-3.84a2.65,2.65,0,0,0-2.36-1.11h-.49v4.95Zm2.41-6.83h1.79a9.29,9.29,0,0,0,2-.14,1.33,1.33,0,0,0,1.08-1.4,1.27,1.27,0,0,0-1-1.36,10.48,10.48,0,0,0-2-.11h-1.89Z" transform="translate(-30.76 -187.65)"/><path class="cls-4" d="M245.69,350.74a6.44,6.44,0,0,1,1.46-4.46,5.46,5.46,0,0,1,4.32-1.73,5.56,5.56,0,0,1,4.35,1.69,6.45,6.45,0,0,1,1.46,4.45,6.32,6.32,0,0,1-1.47,4.4,5.52,5.52,0,0,1-4.3,1.7,5.6,5.6,0,0,1-4.32-1.67A6.16,6.16,0,0,1,245.69,350.74Zm2.48-.08a4.91,4.91,0,0,0,.76,2.84,3,3,0,0,0,2.57,1.25,2.89,2.89,0,0,0,2.55-1.28,4.89,4.89,0,0,0,.75-2.84q0-4-3.3-4T248.17,350.66Z" transform="translate(-30.76 -187.65)"/><path class="cls-4" d="M262.23,356.59,258,344.75h2.61l3,8.77,2.93-8.77h2.56l-4.27,11.84Z" transform="translate(-30.76 -187.65)"/><path class="cls-4" d="M270.24,356.59V344.75h2.43v11.84Z" transform="translate(-30.76 -187.65)"/><path class="cls-4" d="M275,356.59V344.75h2.35l4.9,7.91v-7.91h2.23v11.84h-2.41l-4.82-7.72v7.72Z" transform="translate(-30.76 -187.65)"/><path class="cls-4" d="M294.68,352.23,297,353a4.72,4.72,0,0,1-5,3.81A5,5,0,0,1,288,355a6.44,6.44,0,0,1-1.37-4.27,6.7,6.7,0,0,1,1.39-4.43,5.17,5.17,0,0,1,4.21-1.79A4.45,4.45,0,0,1,297,348l-2.38.56a2.34,2.34,0,0,0-2.53-2q-3,0-3,4c0,2.76,1,4.15,2.93,4.15C293.4,354.75,294.29,353.91,294.68,352.23Z" transform="translate(-30.76 -187.65)"/><path class="cls-4" d="M299,356.59V344.75h2.43v11.84Z" transform="translate(-30.76 -187.65)"/><path class="cls-4" d="M314.5,356.59h-2.62l-1-2.68h-4.79l-1,2.68h-2.56l4.66-11.84h2.55Zm-4.45-4.69-1.63-4.4-1.63,4.4Z" transform="translate(-30.76 -187.65)"/><path class="cls-4" d="M315.76,356.59V344.75h2.43v9.85h6v2Z" transform="translate(-30.76 -187.65)"/><path class="cls-4" d="M330.61,356.59V344.75h8.87v2H333v2.63h6v2h-6v3.23h6.69v2Z" transform="translate(-30.76 -187.65)"/><path class="cls-4" d="M341.76,356.59V344.75h2.42v9.85h6v2Z" transform="translate(-30.76 -187.65)"/><path class="cls-4" d="M352,356.59V344.75h8.87v2h-6.46v2.63h6v2h-6v3.23h6.68v2Z" transform="translate(-30.76 -187.65)"/><path class="cls-4" d="M370.78,352.23l2.34.75a4.72,4.72,0,0,1-5,3.81,5,5,0,0,1-4.08-1.75,6.44,6.44,0,0,1-1.37-4.27,6.7,6.7,0,0,1,1.39-4.43,5.17,5.17,0,0,1,4.21-1.79,4.45,4.45,0,0,1,4.78,3.46l-2.38.56a2.34,2.34,0,0,0-2.53-2q-3,0-3,4c0,2.76,1,4.15,2.93,4.15C369.51,354.75,370.39,353.91,370.78,352.23Z" transform="translate(-30.76 -187.65)"/><path class="cls-4" d="M377.87,356.59v-9.84h-3.55v-2h9.5v2h-3.54v9.84Z" transform="translate(-30.76 -187.65)"/><path class="cls-4" d="M385.39,356.59V344.75h5.09a7.27,7.27,0,0,1,3.27.55,2.88,2.88,0,0,1,1.43,2.76c0,1.9-1.06,3-3.16,3.31a8.08,8.08,0,0,1,2.66,2.91l1.46,2.31h-2.89l-2.6-3.84a2.64,2.64,0,0,0-2.36-1.11h-.49v4.95Zm2.41-6.83h1.79a9.16,9.16,0,0,0,2-.14,1.33,1.33,0,0,0,1.09-1.4,1.27,1.27,0,0,0-1-1.36,10.61,10.61,0,0,0-2-.11H387.8Z" transform="translate(-30.76 -187.65)"/><path class="cls-4" d="M397.36,356.59V344.75h2.43v11.84Z" transform="translate(-30.76 -187.65)"/><path class="cls-4" d="M409.75,352.23l2.33.75a4.71,4.71,0,0,1-5,3.81A5,5,0,0,1,403,355a6.39,6.39,0,0,1-1.38-4.27,6.75,6.75,0,0,1,1.39-4.43,5.17,5.17,0,0,1,4.21-1.79q3.81,0,4.79,3.46l-2.39.56a2.34,2.34,0,0,0-2.52-2c-2,0-3,1.34-3,4s1,4.15,2.94,4.15C408.47,354.75,409.36,353.91,409.75,352.23Z" transform="translate(-30.76 -187.65)"/><path class="cls-4" d="M414.06,356.59V344.75h2.42v11.84Z" transform="translate(-30.76 -187.65)"/><path class="cls-4" d="M421.47,356.59v-9.84h-3.55v-2h9.5v2h-3.54v9.84Z" transform="translate(-30.76 -187.65)"/><path class="cls-4" d="M432.13,356.59v-5l-4.37-6.85h2.82l2.81,4.69,2.75-4.69h2.79l-4.4,6.88v5Z" transform="translate(-30.76 -187.65)"/><path class="cls-4" d="M455.56,356.59h-2.63l-1-2.68h-4.79l-1,2.68h-2.56l4.66-11.84h2.55Zm-4.45-4.69-1.64-4.4-1.62,4.4Z" transform="translate(-30.76 -187.65)"/><path class="cls-4" d="M456.82,344.75h2.41v6.41c0,1,0,1.52,0,1.71a2.07,2.07,0,0,0,.74,1.43,2.69,2.69,0,0,0,1.65.45,2,2,0,0,0,2-1,7.11,7.11,0,0,0,.27-2.45v-6.54h2.42V351a15.47,15.47,0,0,1-.17,2.8,3.55,3.55,0,0,1-1.42,2.28,5.27,5.27,0,0,1-3,.74q-3.64,0-4.52-2.25a10.74,10.74,0,0,1-.39-3.48Z" transform="translate(-30.76 -187.65)"/><path class="cls-4" d="M471.58,356.59v-9.84H468v-2h9.5v2H474v9.84Z" transform="translate(-30.76 -187.65)"/><path class="cls-4" d="M479.11,356.59V344.75h2.42v4.66h4.73v-4.66h2.41v11.84h-2.41v-5.17h-4.73v5.17Z" transform="translate(-30.76 -187.65)"/><path class="cls-4" d="M490.66,350.74a6.49,6.49,0,0,1,1.46-4.46,6.35,6.35,0,0,1,8.67,0,6.4,6.4,0,0,1,1.47,4.45,6.28,6.28,0,0,1-1.48,4.4,5.51,5.51,0,0,1-4.3,1.7,5.6,5.6,0,0,1-4.32-1.67A6.16,6.16,0,0,1,490.66,350.74Zm2.49-.08a4.84,4.84,0,0,0,.76,2.84,3,3,0,0,0,2.56,1.25,2.87,2.87,0,0,0,2.55-1.28,4.89,4.89,0,0,0,.75-2.84q0-4-3.3-4C494.25,346.59,493.15,348,493.15,350.66Z" transform="translate(-30.76 -187.65)"/><path class="cls-4" d="M504.16,356.59V344.75h5.08a7.34,7.34,0,0,1,3.28.55,2.87,2.87,0,0,1,1.42,2.76q0,2.85-3.16,3.31a8,8,0,0,1,2.66,2.91l1.46,2.31H512l-2.6-3.84a2.65,2.65,0,0,0-2.36-1.11h-.49v4.95Zm2.41-6.83h1.78a9.33,9.33,0,0,0,2-.14,1.33,1.33,0,0,0,1.08-1.4,1.27,1.27,0,0,0-1-1.36,10.61,10.61,0,0,0-2-.11h-1.88Z" transform="translate(-30.76 -187.65)"/><path class="cls-4" d="M516.13,356.59V344.75h2.42v11.84Z" transform="translate(-30.76 -187.65)"/><path class="cls-4" d="M523.54,356.59v-9.84H520v-2h9.5v2H526v9.84Z" transform="translate(-30.76 -187.65)"/><path class="cls-4" d="M534.2,356.59v-5l-4.37-6.85h2.82l2.81,4.69,2.75-4.69H541l-4.39,6.88v5Z" transform="translate(-30.76 -187.65)"/></svg>